{
  "accessors": [
    {
      "bufferView": 1,
      "componentType": 5126,
      "count": 11607,
      "max": [
        1.1425541639328003,
        1.1166599988937378,
        1.9071700572967529
      ],
      "min": [
        -1.1505037546157837,
        -0.94515383243560791,
        -2.8495552539825439
      ],
      "type": "VEC3"
    },
    {
      "bufferView": 1,
      "byteOffset": 139284,
      "componentType": 5126,
      "count": 11607,
      "max": [
        1,
        0.99999487400054932,
        1
      ],
      "min": [
        -1,
        -0.99999499320983887,
        -1
      ],
      "type": "VEC3"
    },
    {
      "bufferView": 0,
      "componentType": 5125,
      "count": 54777,
      "max": [
        11606
      ],
      "min": [
        0
      ],
      "type": "SCALAR"
    },
    {
      "bufferView": 1,
      "byteOffset": 278568,
      "componentType": 5126,
      "count": 1592,
      "max": [
        1.0432000160217285,
        0.25358998775482178,
        0.64844983816146851
      ],
      "min": [
        -1.0432000160217285,
        -0.97912389039993286,
        -0.86134999990463257
      ],
      "type": "VEC3"
    },
    {
      "bufferView": 1,
      "byteOffset": 297672,
      "componentType": 5126,
      "count": 1592,
      "max": [
        0.91909295320510864,
        0.99995607137680054,
        0.4340793788433075
      ],
      "min": [
        -0.91909933090209961,
        -0.40319868922233582,
        -0.67435908317565918
      ],
      "type": "VEC3"
    },
    {
      "bufferView": 0,
      "byteOffset": 219108,
      "componentType": 5125,
      "count": 2592,
      "max": [
        1591
      ],
      "min": [
        0
      ],
      "type": "SCALAR"
    },
    {
      "bufferView": 2,
      "componentType": 5126,
      "count": 1,
      "max": [
        1,
        0,
        0,
        0,
        0,
        1,
        0,
        0,
        0,
        0,
        1,
        0,
        0,
        0,
        0,
        1
      ],
      "min": [
        1,
        0,
        0,
        0,
        0,
        1,
        0,
        0,
        0,
        0,
        1,
        0,
        0,
        0,
        0,
        1
      ],
      "type": "MAT4"
    }
  ],
  "asset": {
    "extras": {
      "author": "Da_Nrd (https://sketchfab.com/da_nrd)",
      "license": "CC-BY-4.0 (http://creativecommons.org/licenses/by/4.0/)",
      "source": "https://sketchfab.com/models/c335e0d796e1442299fa7a9df84cbb12",
      "title": "Small Robot"
    },
    "generator": "Sketchfab-3.18.6",
    "version": "2.0"
  },
  "bufferViews": [
    {
      "buffer": 0,
      "byteLength": 229476,
      "byteOffset": 0,
      "name": "floatBufferViews",
      "target": 34963
    },
    {
      "buffer": 0,
      "byteLength": 316776,
      "byteOffset": 229476,
      "byteStride": 12,
      "name": "floatBufferViews",
      "target": 34962
    },
    {
      "buffer": 0,
      "byteLength": 64,
      "byteOffset": 546252,
      "byteStride": 64,
      "name": "floatBufferViews"
    }
  ],
  "buffers": [
    {
      "byteLength": 546316,
      "uri": "scene.bin"
    }
  ],
  "materials": [
    {
      "doubleSided": true,
      "emissiveFactor": [
        0,
        0,
        0
      ],
      "name": "Player",
      "pbrMetallicRoughness": {
        "baseColorFactor": [
          0.19017809629999999,
          0.19017809629999999,
          0.19017809629999999,
          1
        ],
        "metallicFactor": 0,
        "roughnessFactor": 0.59999999999999998
      }
    },
    {
      "doubleSided": true,
      "emissiveFactor": [
        0.28000000120000001,
        0.28000000120000001,
        0.28000000120000001
      ],
      "name": "material",
      "pbrMetallicRoughness": {
        "baseColorFactor": [
          0,
          0.75499999520000005,
          0.80000001190000003,
          1
        ],
        "metallicFactor": 0,
        "roughnessFactor": 0.59999999999999998
      }
    }
  ],
  "meshes": [
    {
      "name": "Sphere.001_0",
      "primitives": [
        {
          "attributes": {
            "NORMAL": 1,
            "POSITION": 0
          },
          "indices": 2,
          "material": 0,
          "mode": 4
        }
      ]
    },
    {
      "name": "Sphere.001_1",
      "primitives": [
        {
          "attributes": {
            "NORMAL": 4,
            "POSITION": 3
          },
          "indices": 5,
          "material": 1,
          "mode": 4
        }
      ]
    }
  ],
  "nodes": [
    {
      "children": [
        1
      ],
      "name": "RootNode (gltf orientation matrix)",
      "rotation": [
        -0.70710678118654746,
        -0,
        -0,
        0.70710678118654757
      ]
    },
    {
      "children": [
        2
      ],
      "name": "RootNode (model correction matrix)"
    },
    {
      "children": [
        3
      ],
      "name": "Root"
    },
    {
      "children": [
        4,
        5
      ],
      "matrix": [
        1,
        0,
        0,
        0,
        0,
        1,
        0,
        0,
        0,
        0,
        1,
        0,
        0,
        0.12967999999999999,
        -1.6795800000000001,
        1
      ],
      "name": "Armature"
    },
    {
      "name": "Armature_rootJoint"
    },
    {
      "children": [
        6,
        7
      ],
      "matrix": [
        1,
        0,
        0,
        0,
        0,
        1,
        0,
        0,
        0,
        -0,
        1,
        0,
        0,
        -0.12967999999999999,
        1.6795800000000001,
        1
      ],
      "name": "Sphere.001"
    },
    {
      "mesh": 0,
      "name": "Sphere.001_0"
    },
    {
      "mesh": 1,
      "name": "Sphere.001_1"
    }
  ],
  "scene": 0,
  "scenes": [
    {
      "name": "OSG_Scene",
      "nodes": [
        0
      ]
    }
  ],
  "skins": [
    {
      "inverseBindMatrices": 6,
      "joints": [
        4
      ],
      "skeleton": 4
    }
  ]
}

